G04 #@! TF.GenerationSoftware,KiCad,Pcbnew,9.0.3-9.0.3-0~ubuntu24.04.1*
G04 #@! TF.CreationDate,2025-08-16T17:29:32+02:00*
G04 #@! TF.ProjectId,acoustic-piezodriver-board,61636f75-7374-4696-932d-7069657a6f64,rev?*
G04 #@! TF.SameCoordinates,Original*
G04 #@! TF.FileFunction,Soldermask,Top*
G04 #@! TF.FilePolarity,Negative*
%FSLAX46Y46*%
G04 Gerber Fmt 4.6, Leading zero omitted, Abs format (unit mm)*
G04 Created by KiCad (PCBNEW 9.0.3-9.0.3-0~ubuntu24.04.1) date 2025-08-16 17:29:32*
%MOMM*%
%LPD*%
G01*
G04 APERTURE LIST*
G04 Aperture macros list*
%AMRoundRect*
0 Rectangle with rounded corners*
0 $1 Rounding radius*
0 $2 $3 $4 $5 $6 $7 $8 $9 X,Y pos of 4 corners*
0 Add a 4 corners polygon primitive as box body*
4,1,4,$2,$3,$4,$5,$6,$7,$8,$9,$2,$3,0*
0 Add four circle primitives for the rounded corners*
1,1,$1+$1,$2,$3*
1,1,$1+$1,$4,$5*
1,1,$1+$1,$6,$7*
1,1,$1+$1,$8,$9*
0 Add four rect primitives between the rounded corners*
20,1,$1+$1,$2,$3,$4,$5,0*
20,1,$1+$1,$4,$5,$6,$7,0*
20,1,$1+$1,$6,$7,$8,$9,0*
20,1,$1+$1,$8,$9,$2,$3,0*%
G04 Aperture macros list end*
%ADD10C,1.300000*%
%ADD11C,2.000000*%
%ADD12RoundRect,0.200000X0.275000X-0.200000X0.275000X0.200000X-0.275000X0.200000X-0.275000X-0.200000X0*%
%ADD13R,1.700000X1.700000*%
%ADD14C,1.700000*%
%ADD15RoundRect,0.250000X0.475000X-0.250000X0.475000X0.250000X-0.475000X0.250000X-0.475000X-0.250000X0*%
%ADD16RoundRect,0.225000X0.225000X0.250000X-0.225000X0.250000X-0.225000X-0.250000X0.225000X-0.250000X0*%
%ADD17RoundRect,0.140000X-0.170000X0.140000X-0.170000X-0.140000X0.170000X-0.140000X0.170000X0.140000X0*%
%ADD18RoundRect,0.237500X-0.250000X-0.237500X0.250000X-0.237500X0.250000X0.237500X-0.250000X0.237500X0*%
%ADD19RoundRect,0.140000X0.170000X-0.140000X0.170000X0.140000X-0.170000X0.140000X-0.170000X-0.140000X0*%
%ADD20RoundRect,0.135000X-0.185000X0.135000X-0.185000X-0.135000X0.185000X-0.135000X0.185000X0.135000X0*%
%ADD21RoundRect,0.130000X-0.130000X0.692500X-0.130000X-0.692500X0.130000X-0.692500X0.130000X0.692500X0*%
%ADD22RoundRect,0.250000X0.650000X-1.000000X0.650000X1.000000X-0.650000X1.000000X-0.650000X-1.000000X0*%
%ADD23RoundRect,0.237500X0.250000X0.237500X-0.250000X0.237500X-0.250000X-0.237500X0.250000X-0.237500X0*%
%ADD24RoundRect,0.140000X-0.140000X-0.170000X0.140000X-0.170000X0.140000X0.170000X-0.140000X0.170000X0*%
%ADD25C,2.300000*%
%ADD26RoundRect,0.250000X0.250000X0.475000X-0.250000X0.475000X-0.250000X-0.475000X0.250000X-0.475000X0*%
%ADD27RoundRect,0.135000X0.135000X0.185000X-0.135000X0.185000X-0.135000X-0.185000X0.135000X-0.185000X0*%
%ADD28RoundRect,0.200000X-0.275000X0.200000X-0.275000X-0.200000X0.275000X-0.200000X0.275000X0.200000X0*%
%ADD29C,4.000000*%
%ADD30C,1.600000*%
%ADD31RoundRect,0.218750X-0.218750X-0.256250X0.218750X-0.256250X0.218750X0.256250X-0.218750X0.256250X0*%
%ADD32RoundRect,0.150000X0.150000X-0.825000X0.150000X0.825000X-0.150000X0.825000X-0.150000X-0.825000X0*%
%ADD33RoundRect,0.250000X-0.250000X-0.475000X0.250000X-0.475000X0.250000X0.475000X-0.250000X0.475000X0*%
%ADD34RoundRect,0.250000X-1.000000X-0.650000X1.000000X-0.650000X1.000000X0.650000X-1.000000X0.650000X0*%
%ADD35R,1.100000X0.250000*%
%ADD36RoundRect,0.140000X0.140000X0.170000X-0.140000X0.170000X-0.140000X-0.170000X0.140000X-0.170000X0*%
%ADD37RoundRect,0.250000X0.625000X-0.400000X0.625000X0.400000X-0.625000X0.400000X-0.625000X-0.400000X0*%
%ADD38RoundRect,0.525000X-1.475000X1.225000X-1.475000X-1.225000X1.475000X-1.225000X1.475000X1.225000X0*%
%ADD39R,2.469157X0.622132*%
%ADD40RoundRect,0.092500X-0.092500X0.255000X-0.092500X-0.255000X0.092500X-0.255000X0.092500X0.255000X0*%
%ADD41RoundRect,0.250000X0.325000X0.650000X-0.325000X0.650000X-0.325000X-0.650000X0.325000X-0.650000X0*%
%ADD42RoundRect,0.250000X-0.475000X0.250000X-0.475000X-0.250000X0.475000X-0.250000X0.475000X0.250000X0*%
%ADD43RoundRect,0.525000X-1.225000X-1.475000X1.225000X-1.475000X1.225000X1.475000X-1.225000X1.475000X0*%
%ADD44RoundRect,0.237500X0.237500X-0.250000X0.237500X0.250000X-0.237500X0.250000X-0.237500X-0.250000X0*%
%ADD45RoundRect,0.200000X0.200000X0.275000X-0.200000X0.275000X-0.200000X-0.275000X0.200000X-0.275000X0*%
%ADD46RoundRect,0.250000X1.000000X0.650000X-1.000000X0.650000X-1.000000X-0.650000X1.000000X-0.650000X0*%
%ADD47RoundRect,0.150000X-0.150000X0.825000X-0.150000X-0.825000X0.150000X-0.825000X0.150000X0.825000X0*%
%ADD48RoundRect,0.250000X-0.325000X-0.650000X0.325000X-0.650000X0.325000X0.650000X-0.325000X0.650000X0*%
%ADD49RoundRect,0.150000X0.825000X0.150000X-0.825000X0.150000X-0.825000X-0.150000X0.825000X-0.150000X0*%
%ADD50RoundRect,0.465000X-2.035000X1.085000X-2.035000X-1.085000X2.035000X-1.085000X2.035000X1.085000X0*%
%ADD51RoundRect,0.250000X-0.350000X-0.450000X0.350000X-0.450000X0.350000X0.450000X-0.350000X0.450000X0*%
%ADD52RoundRect,0.250000X0.625000X-0.312500X0.625000X0.312500X-0.625000X0.312500X-0.625000X-0.312500X0*%
%ADD53R,0.622132X2.469157*%
%ADD54RoundRect,0.150000X-0.825000X-0.150000X0.825000X-0.150000X0.825000X0.150000X-0.825000X0.150000X0*%
%ADD55RoundRect,0.375000X0.375000X-0.625000X0.375000X0.625000X-0.375000X0.625000X-0.375000X-0.625000X0*%
%ADD56RoundRect,0.500000X1.400000X-0.500000X1.400000X0.500000X-1.400000X0.500000X-1.400000X-0.500000X0*%
%ADD57RoundRect,0.150000X0.150000X-0.587500X0.150000X0.587500X-0.150000X0.587500X-0.150000X-0.587500X0*%
%ADD58RoundRect,0.250000X-0.625000X0.312500X-0.625000X-0.312500X0.625000X-0.312500X0.625000X0.312500X0*%
%ADD59RoundRect,0.200000X-0.200000X-0.275000X0.200000X-0.275000X0.200000X0.275000X-0.200000X0.275000X0*%
%ADD60RoundRect,0.250000X0.650000X-0.325000X0.650000X0.325000X-0.650000X0.325000X-0.650000X-0.325000X0*%
%ADD61RoundRect,0.250000X-0.625000X0.400000X-0.625000X-0.400000X0.625000X-0.400000X0.625000X0.400000X0*%
%ADD62RoundRect,0.218750X0.218750X0.256250X-0.218750X0.256250X-0.218750X-0.256250X0.218750X-0.256250X0*%
%ADD63RoundRect,0.225000X-0.250000X0.225000X-0.250000X-0.225000X0.250000X-0.225000X0.250000X0.225000X0*%
%ADD64RoundRect,0.225000X0.250000X-0.225000X0.250000X0.225000X-0.250000X0.225000X-0.250000X-0.225000X0*%
G04 APERTURE END LIST*
D10*
X50730000Y-128610000D03*
X136640000Y-131420000D03*
X125700000Y-85080000D03*
D11*
X50970000Y-130800000D03*
X136830000Y-128650000D03*
X48650000Y-93330000D03*
X127790000Y-86120000D03*
D12*
X96830000Y-128075000D03*
X96830000Y-126425000D03*
D13*
X47000000Y-139000000D03*
D14*
X47000000Y-136460000D03*
X49540000Y-139000000D03*
X49540000Y-136460000D03*
X52080000Y-139000000D03*
X52080000Y-136460000D03*
X54620000Y-139000000D03*
X54620000Y-136460000D03*
X57160000Y-139000000D03*
X57160000Y-136460000D03*
X59700000Y-139000000D03*
X59700000Y-136460000D03*
D15*
X103425000Y-93725000D03*
X103425000Y-91825000D03*
D16*
X50625000Y-100475000D03*
X49075000Y-100475000D03*
D17*
X117815000Y-129575000D03*
X117815000Y-130535000D03*
D18*
X82517500Y-104070000D03*
X84342500Y-104070000D03*
D19*
X71276500Y-130095000D03*
X71276500Y-129135000D03*
D20*
X77140000Y-137850000D03*
X77140000Y-138870000D03*
D12*
X81225000Y-115725000D03*
X81225000Y-114075000D03*
D21*
X80825000Y-104712500D03*
X80175000Y-104712500D03*
X79525000Y-104712500D03*
X78875000Y-104712500D03*
X78875000Y-108937500D03*
X79525000Y-108937500D03*
X80175000Y-108937500D03*
X80825000Y-108937500D03*
D22*
X111975000Y-104700000D03*
X111975000Y-100700000D03*
D23*
X119877500Y-95045000D03*
X118052500Y-95045000D03*
D19*
X106225000Y-95970000D03*
X106225000Y-95010000D03*
D24*
X93940000Y-87200000D03*
X94900000Y-87200000D03*
D20*
X77276500Y-129905000D03*
X77276500Y-130925000D03*
D25*
X108000000Y-85500000D03*
X113000000Y-85500000D03*
X118000000Y-85500000D03*
D26*
X105810000Y-110300000D03*
X103910000Y-110300000D03*
D18*
X69512500Y-100250000D03*
X71337500Y-100250000D03*
D27*
X77336500Y-128865000D03*
X76316500Y-128865000D03*
D28*
X52125000Y-98800000D03*
X52125000Y-100450000D03*
D15*
X101660000Y-116950000D03*
X101660000Y-115050000D03*
D22*
X55800000Y-113200000D03*
X55800000Y-109200000D03*
D28*
X112995000Y-91925000D03*
X112995000Y-93575000D03*
D24*
X101580000Y-129430000D03*
X102540000Y-129430000D03*
D29*
X98800000Y-98000000D03*
D28*
X79101500Y-130465000D03*
X79101500Y-132115000D03*
D30*
X135075000Y-107550000D03*
X140075000Y-107550000D03*
D31*
X115112500Y-98000000D03*
X116687500Y-98000000D03*
D32*
X122710000Y-97375000D03*
X123980000Y-97375000D03*
X125250000Y-97375000D03*
X126520000Y-97375000D03*
X126520000Y-92425000D03*
X125250000Y-92425000D03*
X123980000Y-92425000D03*
X122710000Y-92425000D03*
D33*
X121850000Y-100440000D03*
X123750000Y-100440000D03*
D34*
X51600000Y-95387500D03*
X55600000Y-95387500D03*
D35*
X76001500Y-133390000D03*
X76001500Y-132890000D03*
X76001500Y-132390000D03*
X76001500Y-131890000D03*
X76001500Y-131390000D03*
X71701500Y-131390000D03*
X71701500Y-131890000D03*
X71701500Y-132390000D03*
X71701500Y-132890000D03*
X71701500Y-133390000D03*
D36*
X113480000Y-97900000D03*
X112520000Y-97900000D03*
D12*
X80200000Y-112700000D03*
X80200000Y-111050000D03*
D33*
X126400000Y-135910000D03*
X128300000Y-135910000D03*
D37*
X99360000Y-122270000D03*
X99360000Y-119170000D03*
D21*
X52075000Y-102312500D03*
X51425000Y-102312500D03*
X50775000Y-102312500D03*
X50125000Y-102312500D03*
X50125000Y-106537500D03*
X50775000Y-106537500D03*
X51425000Y-106537500D03*
X52075000Y-106537500D03*
D38*
X63555000Y-99720000D03*
X63555000Y-109220000D03*
D39*
X110986401Y-129225000D03*
X110986401Y-130495000D03*
X110986401Y-131765000D03*
X110986401Y-133035000D03*
X115813599Y-133035000D03*
X115813599Y-131765000D03*
X115813599Y-130495000D03*
X115813599Y-129225000D03*
D26*
X104450000Y-84100000D03*
X102550000Y-84100000D03*
D36*
X83140000Y-105500000D03*
X82180000Y-105500000D03*
D40*
X72520000Y-97297500D03*
X72020000Y-97297500D03*
X71520000Y-97297500D03*
X71520000Y-98722500D03*
X72020000Y-98722500D03*
X72520000Y-98722500D03*
D18*
X52400000Y-92862500D03*
X54225000Y-92862500D03*
D27*
X74840000Y-134730000D03*
X73820000Y-134730000D03*
D17*
X72920000Y-134670000D03*
X72920000Y-135630000D03*
D19*
X60100000Y-94655000D03*
X60100000Y-93695000D03*
D41*
X99705000Y-116870000D03*
X96755000Y-116870000D03*
D36*
X115170000Y-91700000D03*
X114210000Y-91700000D03*
D33*
X103840000Y-102840000D03*
X105740000Y-102840000D03*
D41*
X62200000Y-112350000D03*
X59250000Y-112350000D03*
D19*
X83540000Y-108650000D03*
X83540000Y-107690000D03*
D42*
X103492948Y-88342676D03*
X103492948Y-90242676D03*
D17*
X129385000Y-92470000D03*
X129385000Y-93430000D03*
D43*
X104605000Y-118045000D03*
X114105000Y-118045000D03*
D44*
X90665000Y-102097500D03*
X90665000Y-100272500D03*
D33*
X69555000Y-103555000D03*
X71455000Y-103555000D03*
D45*
X49400000Y-112650000D03*
X47750000Y-112650000D03*
D17*
X73110000Y-100150000D03*
X73110000Y-101110000D03*
D34*
X120000000Y-130300000D03*
X124000000Y-130300000D03*
D20*
X79820000Y-136950000D03*
X79820000Y-137970000D03*
D43*
X60400000Y-118825000D03*
X69900000Y-118825000D03*
D12*
X77330000Y-105415000D03*
X77330000Y-103765000D03*
D27*
X73211500Y-130040000D03*
X72191500Y-130040000D03*
D46*
X92400000Y-84700000D03*
X88400000Y-84700000D03*
D42*
X101870000Y-118620000D03*
X101870000Y-120520000D03*
D12*
X121100000Y-93575000D03*
X121100000Y-91925000D03*
D15*
X72850000Y-85325000D03*
X72850000Y-83425000D03*
D36*
X128500000Y-98050000D03*
X127540000Y-98050000D03*
D33*
X69555000Y-105555000D03*
X71455000Y-105555000D03*
D25*
X49000000Y-85500000D03*
X54000000Y-85500000D03*
X59000000Y-85500000D03*
D15*
X68450000Y-85925000D03*
X68450000Y-84025000D03*
D33*
X121940000Y-102420000D03*
X123840000Y-102420000D03*
D47*
X57605000Y-100825000D03*
X56335000Y-100825000D03*
X55065000Y-100825000D03*
X53795000Y-100825000D03*
X53795000Y-105775000D03*
X55065000Y-105775000D03*
X56335000Y-105775000D03*
X57605000Y-105775000D03*
D29*
X55300000Y-121700000D03*
D20*
X69850000Y-97965000D03*
X69850000Y-98985000D03*
D28*
X47275000Y-109475000D03*
X47275000Y-111125000D03*
D26*
X52775000Y-118275000D03*
X50875000Y-118275000D03*
D28*
X95246244Y-121495208D03*
X95246244Y-123145208D03*
D12*
X128070000Y-96825000D03*
X128070000Y-95175000D03*
D22*
X129525000Y-104250000D03*
X129525000Y-100250000D03*
D17*
X81450000Y-110470000D03*
X81450000Y-111430000D03*
D45*
X121175000Y-96875000D03*
X119525000Y-96875000D03*
D19*
X101465000Y-122700000D03*
X101465000Y-121740000D03*
D26*
X108410000Y-132800000D03*
X106510000Y-132800000D03*
D18*
X105255000Y-129520000D03*
X107080000Y-129520000D03*
D19*
X121375000Y-95675000D03*
X121375000Y-94715000D03*
D48*
X116940000Y-116775000D03*
X119890000Y-116775000D03*
D30*
X135075000Y-96850000D03*
X140075000Y-96850000D03*
D49*
X84375000Y-102305000D03*
X84375000Y-101035000D03*
X84375000Y-99765000D03*
X84375000Y-98495000D03*
X79425000Y-98495000D03*
X79425000Y-99765000D03*
X79425000Y-101035000D03*
X79425000Y-102305000D03*
D42*
X87900000Y-96800000D03*
X87900000Y-98700000D03*
D27*
X117085000Y-96625000D03*
X116065000Y-96625000D03*
D37*
X58375000Y-96200000D03*
X58375000Y-93100000D03*
D12*
X52450000Y-110350000D03*
X52450000Y-108700000D03*
D17*
X48600000Y-109520000D03*
X48600000Y-110480000D03*
D50*
X80410000Y-85035000D03*
X80410000Y-96135000D03*
D51*
X55500000Y-98225000D03*
X57500000Y-98225000D03*
D52*
X126500000Y-102637500D03*
X126500000Y-99712500D03*
D34*
X103010000Y-126910000D03*
X107010000Y-126910000D03*
D26*
X123360000Y-110050000D03*
X121460000Y-110050000D03*
D53*
X62735000Y-91682198D03*
X64005000Y-91682198D03*
X65275000Y-91682198D03*
X66545000Y-91682198D03*
X66545000Y-86855000D03*
X65275000Y-86855000D03*
X64005000Y-86855000D03*
X62735000Y-86855000D03*
D24*
X63545000Y-84500000D03*
X64505000Y-84500000D03*
D12*
X105915000Y-93820000D03*
X105915000Y-92170000D03*
D54*
X121550000Y-104300000D03*
X121550000Y-105570000D03*
X121550000Y-106840000D03*
X121550000Y-108110000D03*
X126500000Y-108110000D03*
X126500000Y-106840000D03*
X126500000Y-105570000D03*
X126500000Y-104300000D03*
D42*
X89290000Y-128780000D03*
X89290000Y-130680000D03*
D22*
X88700000Y-94400000D03*
X88700000Y-90400000D03*
D55*
X82166250Y-128460000D03*
X84466250Y-128460000D03*
D56*
X84466250Y-122160000D03*
D55*
X86766250Y-128460000D03*
D28*
X77596500Y-132495000D03*
X77596500Y-134145000D03*
D12*
X82340000Y-108355000D03*
X82340000Y-106705000D03*
D57*
X45475000Y-115325000D03*
X47375000Y-115325000D03*
X46425000Y-113450000D03*
D58*
X97875000Y-104375000D03*
X97875000Y-107300000D03*
X109075000Y-100087500D03*
X109075000Y-103012500D03*
D33*
X95026244Y-119712708D03*
X96926244Y-119712708D03*
D12*
X112965000Y-96635000D03*
X112965000Y-94985000D03*
D26*
X104450000Y-95900000D03*
X102550000Y-95900000D03*
D51*
X102400000Y-124160000D03*
X104400000Y-124160000D03*
D36*
X70276500Y-132765000D03*
X69316500Y-132765000D03*
D45*
X71050000Y-101750000D03*
X69400000Y-101750000D03*
D26*
X104450000Y-86200000D03*
X102550000Y-86200000D03*
D21*
X100545000Y-125037500D03*
X99895000Y-125037500D03*
X99245000Y-125037500D03*
X98595000Y-125037500D03*
X98595000Y-129262500D03*
X99245000Y-129262500D03*
X99895000Y-129262500D03*
X100545000Y-129262500D03*
D22*
X118460000Y-105340000D03*
X118460000Y-101340000D03*
D17*
X49630000Y-108940000D03*
X49630000Y-109900000D03*
D59*
X98475000Y-131080000D03*
X100125000Y-131080000D03*
X77030000Y-111570000D03*
X78680000Y-111570000D03*
D28*
X50875000Y-108700000D03*
X50875000Y-110350000D03*
D26*
X52800000Y-116200000D03*
X50900000Y-116200000D03*
D57*
X77845000Y-115267500D03*
X79745000Y-115267500D03*
X78795000Y-113392500D03*
D30*
X135025000Y-85925000D03*
X140025000Y-85925000D03*
D26*
X104550000Y-97900000D03*
X102650000Y-97900000D03*
D36*
X76331500Y-130040000D03*
X75371500Y-130040000D03*
D42*
X91900000Y-96825000D03*
X91900000Y-98725000D03*
D54*
X103970000Y-104650000D03*
X103970000Y-105920000D03*
X103970000Y-107190000D03*
X103970000Y-108460000D03*
X108920000Y-108460000D03*
X108920000Y-107190000D03*
X108920000Y-105920000D03*
X108920000Y-104650000D03*
D33*
X104750000Y-100830000D03*
X106650000Y-100830000D03*
D58*
X115580000Y-101927500D03*
X115580000Y-104852500D03*
D15*
X89213750Y-124380000D03*
X89213750Y-122480000D03*
D12*
X128075000Y-93775000D03*
X128075000Y-92125000D03*
D43*
X117905000Y-123265000D03*
X127405000Y-123265000D03*
D48*
X69630000Y-107705000D03*
X72580000Y-107705000D03*
D60*
X70700000Y-86150000D03*
X70700000Y-83200000D03*
D26*
X52825000Y-114150000D03*
X50925000Y-114150000D03*
D42*
X89930000Y-96795000D03*
X89930000Y-98695000D03*
D33*
X126360000Y-133850000D03*
X128260000Y-133850000D03*
D12*
X45725000Y-111125000D03*
X45725000Y-109475000D03*
D53*
X92195000Y-93997010D03*
X93465000Y-93997010D03*
X94735000Y-93997010D03*
X96005000Y-93997010D03*
X96005000Y-89169812D03*
X94735000Y-89169812D03*
X93465000Y-89169812D03*
X92195000Y-89169812D03*
D61*
X85210000Y-105780000D03*
X85210000Y-108880000D03*
D40*
X115175000Y-93275000D03*
X114675000Y-93275000D03*
X114175000Y-93275000D03*
X114175000Y-94700000D03*
X114675000Y-94700000D03*
X115175000Y-94700000D03*
D62*
X73060000Y-94970000D03*
X71485000Y-94970000D03*
D42*
X124460000Y-135920000D03*
X124460000Y-137820000D03*
D26*
X50550000Y-98700000D03*
X48650000Y-98700000D03*
D19*
X95530000Y-127300000D03*
X95530000Y-126340000D03*
D22*
X100775000Y-107175000D03*
X100775000Y-103175000D03*
D63*
X77310000Y-106825000D03*
X77310000Y-108375000D03*
D24*
X114170000Y-96050000D03*
X115130000Y-96050000D03*
D42*
X93960000Y-96825000D03*
X93960000Y-98725000D03*
D64*
X96756244Y-123090208D03*
X96756244Y-121540208D03*
D32*
X107585000Y-97570000D03*
X108855000Y-97570000D03*
X110125000Y-97570000D03*
X111395000Y-97570000D03*
X111395000Y-92620000D03*
X110125000Y-92620000D03*
X108855000Y-92620000D03*
X107585000Y-92620000D03*
D45*
X86200000Y-110670000D03*
X84550000Y-110670000D03*
D26*
X52825000Y-112125000D03*
X50925000Y-112125000D03*
D22*
X88140000Y-105035000D03*
X88140000Y-101035000D03*
D13*
X109000000Y-139000000D03*
D14*
X109000000Y-136460000D03*
X111540000Y-139000000D03*
X111540000Y-136460000D03*
X114080000Y-139000000D03*
X114080000Y-136460000D03*
X116620000Y-139000000D03*
X116620000Y-136460000D03*
X119160000Y-139000000D03*
X119160000Y-136460000D03*
X121700000Y-139000000D03*
X121700000Y-136460000D03*
D12*
X95300000Y-130100000D03*
X95300000Y-128450000D03*
D54*
X109795000Y-124015000D03*
X109795000Y-125285000D03*
X109795000Y-126555000D03*
X109795000Y-127825000D03*
X114745000Y-127825000D03*
X114745000Y-126555000D03*
X114745000Y-125285000D03*
X114745000Y-124015000D03*
M02*
