G04 #@! TF.GenerationSoftware,KiCad,Pcbnew,9.0.3-9.0.3-0~ubuntu24.04.1*
G04 #@! TF.CreationDate,2025-08-16T17:29:33+02:00*
G04 #@! TF.ProjectId,acoustic-piezodriver-board,61636f75-7374-4696-932d-7069657a6f64,rev?*
G04 #@! TF.SameCoordinates,Original*
G04 #@! TF.FileFunction,Soldermask,Bot*
G04 #@! TF.FilePolarity,Negative*
%FSLAX46Y46*%
G04 Gerber Fmt 4.6, Leading zero omitted, Abs format (unit mm)*
G04 Created by KiCad (PCBNEW 9.0.3-9.0.3-0~ubuntu24.04.1) date 2025-08-16 17:29:33*
%MOMM*%
%LPD*%
G01*
G04 APERTURE LIST*
%ADD10C,1.300000*%
%ADD11R,1.700000X1.700000*%
%ADD12C,1.700000*%
%ADD13C,2.300000*%
%ADD14C,4.000000*%
%ADD15C,1.600000*%
%ADD16C,1.000000*%
G04 APERTURE END LIST*
D10*
X50730000Y-128610000D03*
X136640000Y-131420000D03*
X125700000Y-85080000D03*
D11*
X47000000Y-139000000D03*
D12*
X47000000Y-136460000D03*
X49540000Y-139000000D03*
X49540000Y-136460000D03*
X52080000Y-139000000D03*
X52080000Y-136460000D03*
X54620000Y-139000000D03*
X54620000Y-136460000D03*
X57160000Y-139000000D03*
X57160000Y-136460000D03*
X59700000Y-139000000D03*
X59700000Y-136460000D03*
D13*
X108000000Y-85500000D03*
X113000000Y-85500000D03*
X118000000Y-85500000D03*
D14*
X98800000Y-98000000D03*
D15*
X135075000Y-107550000D03*
X140075000Y-107550000D03*
D13*
X49000000Y-85500000D03*
X54000000Y-85500000D03*
X59000000Y-85500000D03*
D14*
X55300000Y-121700000D03*
D15*
X135075000Y-96850000D03*
X140075000Y-96850000D03*
X135025000Y-85925000D03*
X140025000Y-85925000D03*
D11*
X109000000Y-139000000D03*
D12*
X109000000Y-136460000D03*
X111540000Y-139000000D03*
X111540000Y-136460000D03*
X114080000Y-139000000D03*
X114080000Y-136460000D03*
X116620000Y-139000000D03*
X116620000Y-136460000D03*
X119160000Y-139000000D03*
X119160000Y-136460000D03*
X121700000Y-139000000D03*
X121700000Y-136460000D03*
D16*
X99350000Y-126940000D03*
X54050000Y-107700000D03*
X85220000Y-110690000D03*
X99300000Y-123270000D03*
X53350000Y-97700000D03*
X83360000Y-102600000D03*
M02*
