M48
; DRILL file {KiCad 9.0.3-9.0.3-0~ubuntu24.04.1} date 2025-08-16T17:29:39+0200
; FORMAT={-:-/ absolute / metric / decimal}
; #@! TF.CreationDate,2025-08-16T17:29:39+02:00
; #@! TF.GenerationSoftware,Kicad,Pcbnew,9.0.3-9.0.3-0~ubuntu24.04.1
; #@! TF.FileFunction,Plated,1,4,PTH
FMAT,2
METRIC
; #@! TA.AperFunction,Plated,PTH,ViaDrill
T1C0.300
; #@! TA.AperFunction,Plated,PTH,ComponentDrill
T2C0.800
; #@! TA.AperFunction,Plated,PTH,ComponentDrill
T3C1.000
; #@! TA.AperFunction,Plated,PTH,ComponentDrill
T4C1.300
; #@! TA.AperFunction,Plated,PTH,ComponentDrill
T5C2.000
%
G90
G05
T1
X47.275Y-108.55
X48.025Y-108.55
X48.21Y-116.65
X48.5Y-101.7
X48.54Y-115.27
X48.7Y-102.6
X48.75Y-106.8
X48.775Y-108.55
X48.9Y-106.04
X49.08Y-111.42
X49.2Y-101.8
X49.33Y-118.84
X49.41Y-117.24
X49.46Y-115.11
X49.61Y-113.83
X49.74Y-110.78
X50.65Y-119.66
X51.8Y-105.0
X52.3Y-105.0
X53.46Y-108.71
X54.24Y-97.72
X56.63Y-92.84
X60.24Y-92.71
X60.43Y-100.11
X61.11Y-97.31
X61.2Y-102.46
X62.74Y-96.95
X62.75Y-81.91
X63.48Y-81.96
X64.0Y-88.5
X64.33Y-102.37
X64.87Y-83.48
X65.3Y-97.02
X65.78Y-84.73
X66.65Y-98.43
X66.68Y-102.11
X66.76Y-100.46
X66.9Y-84.69
X67.06Y-83.09
X67.19Y-118.23
X67.2Y-119.4
X67.258Y-134.101
X67.4Y-116.7
X67.48Y-120.43
X67.74Y-134.74
X68.4Y-82.88
X68.5Y-121.3
X68.57Y-132.59
X68.8Y-116.0
X68.925Y-99.25
X69.31Y-131.88
X69.65Y-130.55
X69.74Y-134.76
X69.9Y-121.6
X70.25Y-129.2
X70.3Y-116.0
X70.77Y-98.84
X71.3Y-128.2
X72.054Y-96.504
X72.27Y-100.06
X72.55Y-127.65
X72.9Y-103.0
X72.9Y-104.1
X72.9Y-105.1
X72.9Y-106.1
X73.21Y-97.27
X73.27Y-101.97
X73.283Y-99.5
X73.5Y-132.49
X73.51Y-141.32
X73.87Y-135.81
X74.0Y-127.1
X74.158Y-138.364
X74.379Y-141.299
X74.536Y-129.865
X74.787Y-118.433
X74.876Y-132.42
X74.95Y-138.48
X74.954Y-133.216
X75.6Y-127.1
X75.88Y-123.909
X76.406Y-123.306
X76.7Y-127.1
X76.8Y-110.4
X76.9Y-112.9
X76.95Y-120.19
X77.19Y-122.47
X77.27Y-116.12
X77.288Y-107.675
X77.56Y-112.92
X77.7Y-110.5
X77.75Y-140.16
X77.75Y-120.19
X77.89Y-139.231
X77.899Y-122.841
X78.066Y-129.865
X78.08Y-137.88
X78.1Y-109.25
X78.1Y-131.7
X78.45Y-127.2
X78.72Y-115.21
X78.729Y-138.348
X78.9Y-106.575
X78.96Y-110.33
X79.013Y-120.175
X79.087Y-133.23
X79.15Y-107.625
X79.3Y-140.05
X79.56Y-110.18
X79.62Y-139.16
X79.8Y-107.625
X79.8Y-120.32
X80.0Y-128.3
X80.316Y-132.09
X80.35Y-131.0
X80.4Y-107.575
X80.4Y-129.5
X80.82Y-136.4
X80.93Y-120.41
X81.142Y-137.132
X81.44Y-105.7
X81.45Y-112.125
X81.47Y-105.12
X81.627Y-120.802
X82.15Y-126.79
X82.175Y-111.4
X82.2Y-112.9
X82.28Y-129.95
X82.47Y-110.67
X82.52Y-114.9
X82.55Y-102.65
X82.55Y-115.7
X82.8Y-112.1
X83.31Y-106.39
X83.67Y-110.71
X83.9Y-112.3
X84.0Y-113.3
X84.64Y-134.4
X85.0Y-111.9
X86.2Y-114.3
X86.26Y-115.23
X86.475Y-99.125
X86.5Y-98.425
X86.6Y-105.925
X86.625Y-105.175
X86.657Y-108.897
X86.675Y-104.45
X86.675Y-108.32
X86.7Y-109.495
X87.2Y-113.4
X87.2Y-114.3
X87.7Y-131.59
X88.1Y-112.7
X88.1Y-113.5
X88.95Y-112.56
X89.214Y-120.93
X89.3Y-106.025
X89.325Y-104.475
X89.375Y-105.15
X90.623Y-132.014
X90.835Y-129.385
X90.92Y-130.74
X90.994Y-122.42
X92.5Y-90.8
X93.05Y-87.4
X93.5Y-90.8
X93.56Y-113.2
X94.2Y-118.2
X94.85Y-91.05
X95.22Y-116.87
X95.24Y-98.09
X95.25Y-98.6
X95.27Y-99.15
X95.59Y-125.35
X95.8Y-86.9
X95.93Y-102.89
X96.0Y-91.05
X96.5Y-87.4
X96.79Y-125.37
X97.47Y-130.43
X97.625Y-125.032
X97.65Y-129.39
X98.5Y-116.1
X98.5Y-116.87
X98.59Y-115.07
X98.6Y-120.66
X99.4Y-120.25
X99.79Y-126.25
X99.92Y-115.05
X100.12Y-120.6
X100.49Y-127.94
X100.74Y-123.48
X101.11Y-128.34
X101.2Y-84.1
X101.2Y-85.3
X101.3Y-86.6
X101.75Y-109.76
X102.19Y-109.04
X102.22Y-110.19
X102.39Y-130.35
X102.63Y-102.65
X102.73Y-109.53
X103.22Y-101.19
X103.36Y-129.44
X103.69Y-114.25
X103.8Y-121.0
X103.82Y-122.09
X103.85Y-100.51
X104.26Y-115.25
X104.8Y-91.6
X104.8Y-92.3
X104.8Y-93.4
X104.9Y-94.2
X104.95Y-88.5
X105.0Y-83.05
X105.0Y-87.55
X105.19Y-114.23
X105.25Y-121.0
X105.3Y-133.3
X105.325Y-95.975
X105.33Y-122.06
X105.33Y-132.36
X105.6Y-90.9
X105.97Y-115.32
X105.99Y-98.21
X106.1Y-91.2
X106.11Y-97.56
X106.225Y-96.8
X106.46Y-134.63
X106.57Y-135.44
X106.8Y-121.0
X106.82Y-121.98
X106.841Y-107.287
X106.85Y-114.23
X106.9Y-91.05
X107.0Y-104.475
X107.28Y-103.04
X107.327Y-103.588
X107.33Y-102.29
X107.33Y-107.92
X107.38Y-116.47
X107.62Y-115.33
X108.11Y-96.02
X108.43Y-122.04
X108.5Y-114.26
X108.5Y-120.95
X108.58Y-116.43
X108.79Y-95.34
X109.04Y-115.4
X109.51Y-94.58
X110.125Y-95.925
X110.43Y-107.46
X110.842Y-108.146
X111.7Y-95.05
X112.87Y-129.66
X113.15Y-129.01
X113.5Y-98.675
X113.63Y-129.58
X113.85Y-92.71
X113.925Y-97.2
X113.98Y-128.98
X114.07Y-131.79
X114.07Y-130.87
X114.15Y-97.875
X114.2Y-95.34
X114.422Y-96.725
X115.323Y-96.76
X115.83Y-95.52
X115.9Y-92.02
X116.1Y-89.82
X116.712Y-95.955
X117.06Y-92.04
X117.31Y-95.912
X117.424Y-110.757
X117.69Y-132.55
X117.72Y-131.41
X118.23Y-90.15
X118.29Y-92.04
X118.5Y-111.28
X118.95Y-95.825
X119.52Y-91.96
X119.54Y-111.97
X119.848Y-108.69
X119.92Y-108.0
X119.93Y-90.37
X120.28Y-109.03
X120.33Y-109.67
X120.69Y-111.71
X120.73Y-102.59
X120.92Y-100.32
X121.1Y-97.97
X121.17Y-101.39
X121.34Y-90.85
X123.38Y-95.77
X124.14Y-95.1
X124.73Y-104.11
X124.86Y-105.51
X124.87Y-101.3
X124.89Y-102.23
X124.9Y-100.42
X125.03Y-94.35
X125.21Y-117.3
X125.239Y-99.002
X125.33Y-119.99
X125.61Y-93.74
X125.71Y-109.38
X127.57Y-117.25
X127.6Y-119.72
X128.05Y-107.16
X128.55Y-106.18
X128.825Y-106.96
X129.42Y-95.19
X129.72Y-98.04
X129.84Y-117.14
X129.87Y-119.23
X129.92Y-131.47
X129.98Y-124.74
X130.02Y-121.79
X130.12Y-134.92
X130.16Y-127.53
X130.4Y-92.47
X132.01Y-84.62
X132.09Y-87.1
X132.12Y-91.39
X132.17Y-88.58
X132.17Y-90.15
X138.17Y-111.87
X138.18Y-98.37
X138.21Y-108.74
X138.29Y-101.14
X138.34Y-92.78
X138.38Y-95.49
X138.43Y-104.39
X138.49Y-84.48
X138.53Y-86.44
X138.69Y-88.96
T2
X135.025Y-85.925
X135.075Y-96.85
X135.075Y-107.55
X140.025Y-85.925
X140.075Y-96.85
X140.075Y-107.55
T3
X47.0Y-136.46
X47.0Y-139.0
X49.54Y-136.46
X49.54Y-139.0
X52.08Y-136.46
X52.08Y-139.0
X54.62Y-136.46
X54.62Y-139.0
X57.16Y-136.46
X57.16Y-139.0
X59.7Y-136.46
X59.7Y-139.0
X109.0Y-136.46
X109.0Y-139.0
X111.54Y-136.46
X111.54Y-139.0
X114.08Y-136.46
X114.08Y-139.0
X116.62Y-136.46
X116.62Y-139.0
X119.16Y-136.46
X119.16Y-139.0
X121.7Y-136.46
X121.7Y-139.0
T4
X49.0Y-85.5
X54.0Y-85.5
X59.0Y-85.5
X108.0Y-85.5
X113.0Y-85.5
X118.0Y-85.5
T5
X55.3Y-121.7
X98.8Y-98.0
M30
