G04 #@! TF.GenerationSoftware,KiCad,Pcbnew,9.0.3-9.0.3-0~ubuntu24.04.1*
G04 #@! TF.CreationDate,2025-08-16T17:29:32+02:00*
G04 #@! TF.ProjectId,acoustic-piezodriver-board,61636f75-7374-4696-932d-7069657a6f64,rev?*
G04 #@! TF.SameCoordinates,Original*
G04 #@! TF.FileFunction,Legend,Bot*
G04 #@! TF.FilePolarity,Positive*
%FSLAX46Y46*%
G04 Gerber Fmt 4.6, Leading zero omitted, Abs format (unit mm)*
G04 Created by KiCad (PCBNEW 9.0.3-9.0.3-0~ubuntu24.04.1) date 2025-08-16 17:29:32*
%MOMM*%
%LPD*%
G01*
G04 APERTURE LIST*
%ADD10C,0.160000*%
%ADD11C,0.100000*%
%ADD12C,0.120000*%
%ADD13C,1.300000*%
%ADD14R,1.700000X1.700000*%
%ADD15C,1.700000*%
%ADD16C,2.300000*%
%ADD17C,4.000000*%
%ADD18C,1.600000*%
%ADD19C,1.000000*%
G04 APERTURE END LIST*
D10*
X89930000Y-117490000D02*
X90463409Y-115812778D01*
X90657376Y-115202879D02*
X91190786Y-113525657D01*
X91384753Y-112915758D02*
X91918162Y-111238535D01*
X92112129Y-110628636D02*
X92645539Y-108951414D01*
X92839506Y-108341515D02*
X93372915Y-106664293D01*
X93566882Y-106054394D02*
X94100292Y-104377172D01*
X94294259Y-103767273D02*
X94827668Y-102090050D01*
X95021635Y-101480151D02*
X95555044Y-99802929D01*
X95749011Y-99193030D02*
X96282421Y-97515808D01*
X96476388Y-96905909D02*
X97009797Y-95228687D01*
X97203764Y-94618788D02*
X97620000Y-93310000D01*
X97620000Y-93310000D02*
X97628535Y-91550021D01*
X97631639Y-90910028D02*
X97640174Y-89150049D01*
X97643278Y-88510056D02*
X97651813Y-86750077D01*
X97654917Y-86110085D02*
X97663452Y-84350105D01*
X97666556Y-83710113D02*
X97669999Y-83000000D01*
X97670000Y-83000000D02*
X95910009Y-82994491D01*
X95270012Y-82992488D02*
X93510020Y-82986980D01*
X92870024Y-82984976D02*
X91110032Y-82979468D01*
X90470035Y-82977465D02*
X88710044Y-82971956D01*
X88070047Y-82969953D02*
X86310056Y-82964444D01*
X85670059Y-82962441D02*
X83910067Y-82956932D01*
X83270071Y-82954929D02*
X81510079Y-82949420D01*
X80870082Y-82947417D02*
X79110091Y-82941909D01*
X78470094Y-82939905D02*
X76710103Y-82934397D01*
X76070106Y-82932394D02*
X74310114Y-82926885D01*
X73670118Y-82924882D02*
X71910126Y-82919373D01*
X71270129Y-82917370D02*
X69510138Y-82911861D01*
X69111945Y-82910615D02*
X69837360Y-84514165D01*
X70101148Y-85097274D02*
X70826563Y-86700824D01*
X71090351Y-87283933D02*
X71815766Y-88887483D01*
X72079554Y-89470592D02*
X72804969Y-91074142D01*
X73068756Y-91657251D02*
X73794172Y-93260801D01*
X74057959Y-93843910D02*
X74783375Y-95447460D01*
X75047162Y-96030569D02*
X75772578Y-97634119D01*
X75920000Y-97960000D02*
X75914621Y-99719992D01*
X75912664Y-100359989D02*
X75907285Y-102119981D01*
X75905329Y-102759978D02*
X75899949Y-104519969D01*
X75897993Y-105159966D02*
X75892613Y-106919958D01*
X75890657Y-107559955D02*
X75885278Y-109319947D01*
X75883322Y-109959944D02*
X75877942Y-111719936D01*
X75875986Y-112359933D02*
X75870606Y-114119925D01*
X75868650Y-114759922D02*
X75863271Y-116519913D01*
X75861315Y-117159910D02*
X75860001Y-117590000D01*
X75860000Y-117590000D02*
X77619956Y-117577491D01*
X78259939Y-117572943D02*
X80019895Y-117560434D01*
X80659879Y-117555886D02*
X82419834Y-117543377D01*
X83059818Y-117538829D02*
X84819774Y-117526320D01*
X85459758Y-117521771D02*
X87219713Y-117509263D01*
X87859697Y-117504714D02*
X89619652Y-117492206D01*
D11*
X70900000Y-125590000D02*
X70905353Y-124490013D01*
X70907299Y-124090018D02*
X70912652Y-122990031D01*
X70914598Y-122590036D02*
X70919951Y-121490049D01*
X70920000Y-121480000D02*
X70921351Y-120380001D01*
X70921843Y-119980001D02*
X70923194Y-118880002D01*
X70923686Y-118480002D02*
X70925037Y-117380003D01*
X70925528Y-116980003D02*
X70926880Y-115880004D01*
X70927371Y-115480005D02*
X70928722Y-114380005D01*
X70929214Y-113980006D02*
X70930565Y-112880006D01*
X70931057Y-112480007D02*
X70932408Y-111380008D01*
X70932899Y-110980008D02*
X70934251Y-109880009D01*
X70934742Y-109480009D02*
X70936093Y-108380010D01*
X70936585Y-107980010D02*
X70937936Y-106880011D01*
X70938428Y-106480011D02*
X70939779Y-105380012D01*
X70940270Y-104980012D02*
X70941622Y-103880013D01*
X70942113Y-103480014D02*
X70943464Y-102380014D01*
X70943956Y-101980015D02*
X70945307Y-100880016D01*
X70945799Y-100480016D02*
X70947150Y-99380017D01*
X70947641Y-98980017D02*
X70948993Y-97880018D01*
X70949484Y-97480018D02*
X70949999Y-97060000D01*
X70950000Y-97060000D02*
X69971321Y-96557816D01*
X69615438Y-96375204D02*
X68636760Y-95873021D01*
X68280877Y-95690408D02*
X67302198Y-95188225D01*
X66946315Y-95005613D02*
X65967637Y-94503429D01*
X65611753Y-94320817D02*
X64633075Y-93818633D01*
X64277192Y-93636021D02*
X63298513Y-93133837D01*
X62942630Y-92951225D02*
X61963952Y-92449042D01*
X61608069Y-92266429D02*
X60629390Y-91764246D01*
X60273507Y-91581634D02*
X60031418Y-91457412D01*
X60031418Y-91457412D02*
X58931420Y-91459654D01*
X58531421Y-91460469D02*
X57431423Y-91462711D01*
X57031424Y-91463526D02*
X55931427Y-91465768D01*
X55531427Y-91466583D02*
X54431430Y-91468825D01*
X54031430Y-91469640D02*
X52931433Y-91471882D01*
X52531434Y-91472697D02*
X51431436Y-91474939D01*
X51031437Y-91475754D02*
X49931439Y-91477996D01*
X49531440Y-91478812D02*
X48431442Y-91481053D01*
X48031443Y-91481869D02*
X46931445Y-91484110D01*
X46531446Y-91484926D02*
X45431448Y-91487168D01*
X45031449Y-91487983D02*
X44889657Y-91488272D01*
X44889538Y-91488272D02*
X44887941Y-92588271D01*
X44887360Y-92988270D02*
X44885763Y-94088269D01*
X44885183Y-94488269D02*
X44883586Y-95588268D01*
X44883005Y-95988267D02*
X44881408Y-97088266D01*
X44880827Y-97488266D02*
X44879230Y-98588265D01*
X44878649Y-98988264D02*
X44877053Y-100088263D01*
X44876472Y-100488263D02*
X44874875Y-101588261D01*
X44874294Y-101988261D02*
X44872697Y-103088260D01*
X44872116Y-103488259D02*
X44870519Y-104588258D01*
X44869939Y-104988258D02*
X44868342Y-106088257D01*
X44867761Y-106488256D02*
X44866164Y-107588255D01*
X44865583Y-107988255D02*
X44863986Y-109088253D01*
X44863406Y-109488253D02*
X44861809Y-110588252D01*
X44861228Y-110988251D02*
X44859631Y-112088250D01*
X44859050Y-112488250D02*
X44857453Y-113588249D01*
X44856872Y-113988248D02*
X44855276Y-115088247D01*
X44854695Y-115488247D02*
X44853098Y-116588246D01*
X44852517Y-116988245D02*
X44850920Y-118088244D01*
X44850339Y-118488244D02*
X44848742Y-119588242D01*
X44848162Y-119988242D02*
X44846565Y-121088241D01*
X44845984Y-121488240D02*
X44844387Y-122588239D01*
X44843806Y-122988239D02*
X44842209Y-124088238D01*
X44841629Y-124488237D02*
X44840032Y-125588236D01*
X44840000Y-125610000D02*
X45940000Y-125609156D01*
X46340000Y-125608849D02*
X47439999Y-125608005D01*
X47839999Y-125607698D02*
X48939999Y-125606853D01*
X49339999Y-125606546D02*
X50439998Y-125605702D01*
X50839998Y-125605395D02*
X51939998Y-125604551D01*
X52339998Y-125604244D02*
X53439997Y-125603400D01*
X53839997Y-125603093D02*
X54939997Y-125602249D01*
X55339997Y-125601942D02*
X56439997Y-125601097D01*
X56839996Y-125600790D02*
X57939996Y-125599946D01*
X58339996Y-125599639D02*
X59439996Y-125598795D01*
X59839996Y-125598488D02*
X60939995Y-125597644D01*
X61339995Y-125597337D02*
X62439995Y-125596493D01*
X62839995Y-125596186D02*
X63939994Y-125595342D01*
X64339994Y-125595035D02*
X65439994Y-125594190D01*
X65839994Y-125593883D02*
X66939993Y-125593039D01*
X67339993Y-125592732D02*
X68439993Y-125591888D01*
X68839993Y-125591581D02*
X69939993Y-125590737D01*
X70339992Y-125590430D02*
X70900000Y-125590001D01*
D10*
X92310000Y-113810000D02*
X94070000Y-113810000D01*
X94710000Y-113810000D02*
X96470000Y-113810000D01*
X97110000Y-113810000D02*
X98870000Y-113810000D01*
X99510000Y-113810000D02*
X101270000Y-113810000D01*
X101910000Y-113810000D02*
X103670000Y-113810000D01*
X104310000Y-113810000D02*
X106070000Y-113810000D01*
X106710000Y-113810000D02*
X108470000Y-113810000D01*
X109110000Y-113810000D02*
X110870000Y-113810000D01*
X111510000Y-113810000D02*
X113270000Y-113810000D01*
X113910000Y-113810000D02*
X115670000Y-113810000D01*
X116310000Y-113810000D02*
X118070000Y-113810000D01*
X118710000Y-113810000D02*
X120470000Y-113810000D01*
X121110000Y-113810000D02*
X122870000Y-113810000D01*
X123510000Y-113810000D02*
X125270000Y-113810000D01*
X125910000Y-113810000D02*
X127670000Y-113810000D01*
X128310000Y-113810000D02*
X130070000Y-113810000D01*
X130710000Y-113810000D02*
X132470000Y-113810000D01*
X133110000Y-113810000D02*
X134190000Y-113810000D01*
X134190000Y-113810000D02*
X134190000Y-115570000D01*
X134190000Y-116210000D02*
X134190000Y-117970000D01*
X134190000Y-118610000D02*
X134190000Y-120370000D01*
X134190000Y-121010000D02*
X134190000Y-122770000D01*
X134190000Y-123410000D02*
X134190000Y-125170000D01*
X134190000Y-125810000D02*
X134190000Y-127570000D01*
X134190000Y-128210000D02*
X134190000Y-129970000D01*
X134190000Y-130610000D02*
X134190000Y-132370000D01*
X134190000Y-133010000D02*
X134190000Y-134320000D01*
X134190000Y-134320000D02*
X132430000Y-134320000D01*
X131790000Y-134320000D02*
X130030000Y-134320000D01*
X129390000Y-134320000D02*
X127630000Y-134320000D01*
X126990000Y-134320000D02*
X125230000Y-134320000D01*
X124590000Y-134320000D02*
X122830000Y-134320000D01*
X122190000Y-134320000D02*
X120430000Y-134320000D01*
X119790000Y-134320000D02*
X118030000Y-134320000D01*
X117390000Y-134320000D02*
X115630000Y-134320000D01*
X114990000Y-134320000D02*
X113230000Y-134320000D01*
X112590000Y-134320000D02*
X110830000Y-134320000D01*
X110190000Y-134320000D02*
X108430000Y-134320000D01*
X107790000Y-134320000D02*
X106030000Y-134320000D01*
X105390000Y-134320000D02*
X103630000Y-134320000D01*
X102990000Y-134320000D02*
X101230000Y-134320000D01*
X100590000Y-134320000D02*
X98830000Y-134320000D01*
X98190000Y-134320000D02*
X96430000Y-134320000D01*
X95790000Y-134320000D02*
X94030000Y-134320000D01*
X93390000Y-134320000D02*
X92310000Y-134320000D01*
X92310000Y-134320000D02*
X92310000Y-132560000D01*
X92310000Y-131920000D02*
X92310000Y-130160000D01*
X92310000Y-129520000D02*
X92310000Y-127760000D01*
X92310000Y-127120000D02*
X92310000Y-125360000D01*
X92310000Y-124720000D02*
X92310000Y-122960000D01*
X92310000Y-122320000D02*
X92310000Y-120560000D01*
X92310000Y-119920000D02*
X92310000Y-118160000D01*
X92310000Y-117520000D02*
X92310000Y-115760000D01*
X92310000Y-115120000D02*
X92310000Y-113810000D01*
X97703308Y-127225489D02*
X98036641Y-127225489D01*
X98036641Y-127749299D02*
X98036641Y-126749299D01*
X98036641Y-126749299D02*
X97560451Y-126749299D01*
X96846165Y-127225489D02*
X96703308Y-127273108D01*
X96703308Y-127273108D02*
X96655689Y-127320727D01*
X96655689Y-127320727D02*
X96608070Y-127415965D01*
X96608070Y-127415965D02*
X96608070Y-127558822D01*
X96608070Y-127558822D02*
X96655689Y-127654060D01*
X96655689Y-127654060D02*
X96703308Y-127701680D01*
X96703308Y-127701680D02*
X96798546Y-127749299D01*
X96798546Y-127749299D02*
X97179498Y-127749299D01*
X97179498Y-127749299D02*
X97179498Y-126749299D01*
X97179498Y-126749299D02*
X96846165Y-126749299D01*
X96846165Y-126749299D02*
X96750927Y-126796918D01*
X96750927Y-126796918D02*
X96703308Y-126844537D01*
X96703308Y-126844537D02*
X96655689Y-126939775D01*
X96655689Y-126939775D02*
X96655689Y-127035013D01*
X96655689Y-127035013D02*
X96703308Y-127130251D01*
X96703308Y-127130251D02*
X96750927Y-127177870D01*
X96750927Y-127177870D02*
X96846165Y-127225489D01*
X96846165Y-127225489D02*
X97179498Y-127225489D01*
X97966641Y-124359299D02*
X97966641Y-123359299D01*
X97538070Y-124311680D02*
X97395213Y-124359299D01*
X97395213Y-124359299D02*
X97157118Y-124359299D01*
X97157118Y-124359299D02*
X97061880Y-124311680D01*
X97061880Y-124311680D02*
X97014261Y-124264060D01*
X97014261Y-124264060D02*
X96966642Y-124168822D01*
X96966642Y-124168822D02*
X96966642Y-124073584D01*
X96966642Y-124073584D02*
X97014261Y-123978346D01*
X97014261Y-123978346D02*
X97061880Y-123930727D01*
X97061880Y-123930727D02*
X97157118Y-123883108D01*
X97157118Y-123883108D02*
X97347594Y-123835489D01*
X97347594Y-123835489D02*
X97442832Y-123787870D01*
X97442832Y-123787870D02*
X97490451Y-123740251D01*
X97490451Y-123740251D02*
X97538070Y-123645013D01*
X97538070Y-123645013D02*
X97538070Y-123549775D01*
X97538070Y-123549775D02*
X97490451Y-123454537D01*
X97490451Y-123454537D02*
X97442832Y-123406918D01*
X97442832Y-123406918D02*
X97347594Y-123359299D01*
X97347594Y-123359299D02*
X97109499Y-123359299D01*
X97109499Y-123359299D02*
X96966642Y-123406918D01*
X96538070Y-123835489D02*
X96204737Y-123835489D01*
X96061880Y-124359299D02*
X96538070Y-124359299D01*
X96538070Y-124359299D02*
X96538070Y-123359299D01*
X96538070Y-123359299D02*
X96061880Y-123359299D01*
X95633308Y-124359299D02*
X95633308Y-123359299D01*
X95633308Y-123359299D02*
X95061880Y-124359299D01*
X95061880Y-124359299D02*
X95061880Y-123359299D01*
X52512832Y-125039299D02*
X53084260Y-125039299D01*
X52798546Y-125039299D02*
X52798546Y-124039299D01*
X52798546Y-124039299D02*
X52893784Y-124182156D01*
X52893784Y-124182156D02*
X52989022Y-124277394D01*
X52989022Y-124277394D02*
X53084260Y-124325013D01*
X51893784Y-124039299D02*
X51798546Y-124039299D01*
X51798546Y-124039299D02*
X51703308Y-124086918D01*
X51703308Y-124086918D02*
X51655689Y-124134537D01*
X51655689Y-124134537D02*
X51608070Y-124229775D01*
X51608070Y-124229775D02*
X51560451Y-124420251D01*
X51560451Y-124420251D02*
X51560451Y-124658346D01*
X51560451Y-124658346D02*
X51608070Y-124848822D01*
X51608070Y-124848822D02*
X51655689Y-124944060D01*
X51655689Y-124944060D02*
X51703308Y-124991680D01*
X51703308Y-124991680D02*
X51798546Y-125039299D01*
X51798546Y-125039299D02*
X51893784Y-125039299D01*
X51893784Y-125039299D02*
X51989022Y-124991680D01*
X51989022Y-124991680D02*
X52036641Y-124944060D01*
X52036641Y-124944060D02*
X52084260Y-124848822D01*
X52084260Y-124848822D02*
X52131879Y-124658346D01*
X52131879Y-124658346D02*
X52131879Y-124420251D01*
X52131879Y-124420251D02*
X52084260Y-124229775D01*
X52084260Y-124229775D02*
X52036641Y-124134537D01*
X52036641Y-124134537D02*
X51989022Y-124086918D01*
X51989022Y-124086918D02*
X51893784Y-124039299D01*
X51274736Y-124039299D02*
X50941403Y-125039299D01*
X50941403Y-125039299D02*
X50608070Y-124039299D01*
X49560450Y-124991680D02*
X49417593Y-125039299D01*
X49417593Y-125039299D02*
X49179498Y-125039299D01*
X49179498Y-125039299D02*
X49084260Y-124991680D01*
X49084260Y-124991680D02*
X49036641Y-124944060D01*
X49036641Y-124944060D02*
X48989022Y-124848822D01*
X48989022Y-124848822D02*
X48989022Y-124753584D01*
X48989022Y-124753584D02*
X49036641Y-124658346D01*
X49036641Y-124658346D02*
X49084260Y-124610727D01*
X49084260Y-124610727D02*
X49179498Y-124563108D01*
X49179498Y-124563108D02*
X49369974Y-124515489D01*
X49369974Y-124515489D02*
X49465212Y-124467870D01*
X49465212Y-124467870D02*
X49512831Y-124420251D01*
X49512831Y-124420251D02*
X49560450Y-124325013D01*
X49560450Y-124325013D02*
X49560450Y-124229775D01*
X49560450Y-124229775D02*
X49512831Y-124134537D01*
X49512831Y-124134537D02*
X49465212Y-124086918D01*
X49465212Y-124086918D02*
X49369974Y-124039299D01*
X49369974Y-124039299D02*
X49131879Y-124039299D01*
X49131879Y-124039299D02*
X48989022Y-124086918D01*
X48560450Y-124515489D02*
X48227117Y-124515489D01*
X48084260Y-125039299D02*
X48560450Y-125039299D01*
X48560450Y-125039299D02*
X48560450Y-124039299D01*
X48560450Y-124039299D02*
X48084260Y-124039299D01*
X47655688Y-125039299D02*
X47655688Y-124039299D01*
X47655688Y-124039299D02*
X47274736Y-124039299D01*
X47274736Y-124039299D02*
X47179498Y-124086918D01*
X47179498Y-124086918D02*
X47131879Y-124134537D01*
X47131879Y-124134537D02*
X47084260Y-124229775D01*
X47084260Y-124229775D02*
X47084260Y-124372632D01*
X47084260Y-124372632D02*
X47131879Y-124467870D01*
X47131879Y-124467870D02*
X47179498Y-124515489D01*
X47179498Y-124515489D02*
X47274736Y-124563108D01*
X47274736Y-124563108D02*
X47655688Y-124563108D01*
X46655688Y-125039299D02*
X46655688Y-124039299D01*
X45608070Y-124944060D02*
X45655689Y-124991680D01*
X45655689Y-124991680D02*
X45798546Y-125039299D01*
X45798546Y-125039299D02*
X45893784Y-125039299D01*
X45893784Y-125039299D02*
X46036641Y-124991680D01*
X46036641Y-124991680D02*
X46131879Y-124896441D01*
X46131879Y-124896441D02*
X46179498Y-124801203D01*
X46179498Y-124801203D02*
X46227117Y-124610727D01*
X46227117Y-124610727D02*
X46227117Y-124467870D01*
X46227117Y-124467870D02*
X46179498Y-124277394D01*
X46179498Y-124277394D02*
X46131879Y-124182156D01*
X46131879Y-124182156D02*
X46036641Y-124086918D01*
X46036641Y-124086918D02*
X45893784Y-124039299D01*
X45893784Y-124039299D02*
X45798546Y-124039299D01*
X45798546Y-124039299D02*
X45655689Y-124086918D01*
X45655689Y-124086918D02*
X45608070Y-124134537D01*
X53006641Y-96329299D02*
X53006641Y-95329299D01*
X52578070Y-96281680D02*
X52435213Y-96329299D01*
X52435213Y-96329299D02*
X52197118Y-96329299D01*
X52197118Y-96329299D02*
X52101880Y-96281680D01*
X52101880Y-96281680D02*
X52054261Y-96234060D01*
X52054261Y-96234060D02*
X52006642Y-96138822D01*
X52006642Y-96138822D02*
X52006642Y-96043584D01*
X52006642Y-96043584D02*
X52054261Y-95948346D01*
X52054261Y-95948346D02*
X52101880Y-95900727D01*
X52101880Y-95900727D02*
X52197118Y-95853108D01*
X52197118Y-95853108D02*
X52387594Y-95805489D01*
X52387594Y-95805489D02*
X52482832Y-95757870D01*
X52482832Y-95757870D02*
X52530451Y-95710251D01*
X52530451Y-95710251D02*
X52578070Y-95615013D01*
X52578070Y-95615013D02*
X52578070Y-95519775D01*
X52578070Y-95519775D02*
X52530451Y-95424537D01*
X52530451Y-95424537D02*
X52482832Y-95376918D01*
X52482832Y-95376918D02*
X52387594Y-95329299D01*
X52387594Y-95329299D02*
X52149499Y-95329299D01*
X52149499Y-95329299D02*
X52006642Y-95376918D01*
X51578070Y-95805489D02*
X51244737Y-95805489D01*
X51101880Y-96329299D02*
X51578070Y-96329299D01*
X51578070Y-96329299D02*
X51578070Y-95329299D01*
X51578070Y-95329299D02*
X51101880Y-95329299D01*
X50673308Y-96329299D02*
X50673308Y-95329299D01*
X50673308Y-95329299D02*
X50101880Y-96329299D01*
X50101880Y-96329299D02*
X50101880Y-95329299D01*
X55713308Y-106045489D02*
X56046641Y-106045489D01*
X56046641Y-106569299D02*
X56046641Y-105569299D01*
X56046641Y-105569299D02*
X55570451Y-105569299D01*
X54856165Y-106045489D02*
X54713308Y-106093108D01*
X54713308Y-106093108D02*
X54665689Y-106140727D01*
X54665689Y-106140727D02*
X54618070Y-106235965D01*
X54618070Y-106235965D02*
X54618070Y-106378822D01*
X54618070Y-106378822D02*
X54665689Y-106474060D01*
X54665689Y-106474060D02*
X54713308Y-106521680D01*
X54713308Y-106521680D02*
X54808546Y-106569299D01*
X54808546Y-106569299D02*
X55189498Y-106569299D01*
X55189498Y-106569299D02*
X55189498Y-105569299D01*
X55189498Y-105569299D02*
X54856165Y-105569299D01*
X54856165Y-105569299D02*
X54760927Y-105616918D01*
X54760927Y-105616918D02*
X54713308Y-105664537D01*
X54713308Y-105664537D02*
X54665689Y-105759775D01*
X54665689Y-105759775D02*
X54665689Y-105855013D01*
X54665689Y-105855013D02*
X54713308Y-105950251D01*
X54713308Y-105950251D02*
X54760927Y-105997870D01*
X54760927Y-105997870D02*
X54856165Y-106045489D01*
X54856165Y-106045489D02*
X55189498Y-106045489D01*
X85366641Y-101179299D02*
X85366641Y-100179299D01*
X84938070Y-101131680D02*
X84795213Y-101179299D01*
X84795213Y-101179299D02*
X84557118Y-101179299D01*
X84557118Y-101179299D02*
X84461880Y-101131680D01*
X84461880Y-101131680D02*
X84414261Y-101084060D01*
X84414261Y-101084060D02*
X84366642Y-100988822D01*
X84366642Y-100988822D02*
X84366642Y-100893584D01*
X84366642Y-100893584D02*
X84414261Y-100798346D01*
X84414261Y-100798346D02*
X84461880Y-100750727D01*
X84461880Y-100750727D02*
X84557118Y-100703108D01*
X84557118Y-100703108D02*
X84747594Y-100655489D01*
X84747594Y-100655489D02*
X84842832Y-100607870D01*
X84842832Y-100607870D02*
X84890451Y-100560251D01*
X84890451Y-100560251D02*
X84938070Y-100465013D01*
X84938070Y-100465013D02*
X84938070Y-100369775D01*
X84938070Y-100369775D02*
X84890451Y-100274537D01*
X84890451Y-100274537D02*
X84842832Y-100226918D01*
X84842832Y-100226918D02*
X84747594Y-100179299D01*
X84747594Y-100179299D02*
X84509499Y-100179299D01*
X84509499Y-100179299D02*
X84366642Y-100226918D01*
X83938070Y-100655489D02*
X83604737Y-100655489D01*
X83461880Y-101179299D02*
X83938070Y-101179299D01*
X83938070Y-101179299D02*
X83938070Y-100179299D01*
X83938070Y-100179299D02*
X83461880Y-100179299D01*
X83033308Y-101179299D02*
X83033308Y-100179299D01*
X83033308Y-100179299D02*
X82461880Y-101179299D01*
X82461880Y-101179299D02*
X82461880Y-100179299D01*
X88163308Y-109905489D02*
X88496641Y-109905489D01*
X88496641Y-110429299D02*
X88496641Y-109429299D01*
X88496641Y-109429299D02*
X88020451Y-109429299D01*
X87306165Y-109905489D02*
X87163308Y-109953108D01*
X87163308Y-109953108D02*
X87115689Y-110000727D01*
X87115689Y-110000727D02*
X87068070Y-110095965D01*
X87068070Y-110095965D02*
X87068070Y-110238822D01*
X87068070Y-110238822D02*
X87115689Y-110334060D01*
X87115689Y-110334060D02*
X87163308Y-110381680D01*
X87163308Y-110381680D02*
X87258546Y-110429299D01*
X87258546Y-110429299D02*
X87639498Y-110429299D01*
X87639498Y-110429299D02*
X87639498Y-109429299D01*
X87639498Y-109429299D02*
X87306165Y-109429299D01*
X87306165Y-109429299D02*
X87210927Y-109476918D01*
X87210927Y-109476918D02*
X87163308Y-109524537D01*
X87163308Y-109524537D02*
X87115689Y-109619775D01*
X87115689Y-109619775D02*
X87115689Y-109715013D01*
X87115689Y-109715013D02*
X87163308Y-109810251D01*
X87163308Y-109810251D02*
X87210927Y-109857870D01*
X87210927Y-109857870D02*
X87306165Y-109905489D01*
X87306165Y-109905489D02*
X87639498Y-109905489D01*
X133218070Y-132789299D02*
X133408546Y-132789299D01*
X133408546Y-132789299D02*
X133503784Y-132836918D01*
X133503784Y-132836918D02*
X133551403Y-132884537D01*
X133551403Y-132884537D02*
X133646641Y-133027394D01*
X133646641Y-133027394D02*
X133694260Y-133217870D01*
X133694260Y-133217870D02*
X133694260Y-133598822D01*
X133694260Y-133598822D02*
X133646641Y-133694060D01*
X133646641Y-133694060D02*
X133599022Y-133741680D01*
X133599022Y-133741680D02*
X133503784Y-133789299D01*
X133503784Y-133789299D02*
X133313308Y-133789299D01*
X133313308Y-133789299D02*
X133218070Y-133741680D01*
X133218070Y-133741680D02*
X133170451Y-133694060D01*
X133170451Y-133694060D02*
X133122832Y-133598822D01*
X133122832Y-133598822D02*
X133122832Y-133360727D01*
X133122832Y-133360727D02*
X133170451Y-133265489D01*
X133170451Y-133265489D02*
X133218070Y-133217870D01*
X133218070Y-133217870D02*
X133313308Y-133170251D01*
X133313308Y-133170251D02*
X133503784Y-133170251D01*
X133503784Y-133170251D02*
X133599022Y-133217870D01*
X133599022Y-133217870D02*
X133646641Y-133265489D01*
X133646641Y-133265489D02*
X133694260Y-133360727D01*
X132837117Y-132789299D02*
X132503784Y-133789299D01*
X132503784Y-133789299D02*
X132170451Y-132789299D01*
X131122831Y-133741680D02*
X130979974Y-133789299D01*
X130979974Y-133789299D02*
X130741879Y-133789299D01*
X130741879Y-133789299D02*
X130646641Y-133741680D01*
X130646641Y-133741680D02*
X130599022Y-133694060D01*
X130599022Y-133694060D02*
X130551403Y-133598822D01*
X130551403Y-133598822D02*
X130551403Y-133503584D01*
X130551403Y-133503584D02*
X130599022Y-133408346D01*
X130599022Y-133408346D02*
X130646641Y-133360727D01*
X130646641Y-133360727D02*
X130741879Y-133313108D01*
X130741879Y-133313108D02*
X130932355Y-133265489D01*
X130932355Y-133265489D02*
X131027593Y-133217870D01*
X131027593Y-133217870D02*
X131075212Y-133170251D01*
X131075212Y-133170251D02*
X131122831Y-133075013D01*
X131122831Y-133075013D02*
X131122831Y-132979775D01*
X131122831Y-132979775D02*
X131075212Y-132884537D01*
X131075212Y-132884537D02*
X131027593Y-132836918D01*
X131027593Y-132836918D02*
X130932355Y-132789299D01*
X130932355Y-132789299D02*
X130694260Y-132789299D01*
X130694260Y-132789299D02*
X130551403Y-132836918D01*
X130122831Y-133265489D02*
X129789498Y-133265489D01*
X129646641Y-133789299D02*
X130122831Y-133789299D01*
X130122831Y-133789299D02*
X130122831Y-132789299D01*
X130122831Y-132789299D02*
X129646641Y-132789299D01*
X129218069Y-133789299D02*
X129218069Y-132789299D01*
X129218069Y-132789299D02*
X128837117Y-132789299D01*
X128837117Y-132789299D02*
X128741879Y-132836918D01*
X128741879Y-132836918D02*
X128694260Y-132884537D01*
X128694260Y-132884537D02*
X128646641Y-132979775D01*
X128646641Y-132979775D02*
X128646641Y-133122632D01*
X128646641Y-133122632D02*
X128694260Y-133217870D01*
X128694260Y-133217870D02*
X128741879Y-133265489D01*
X128741879Y-133265489D02*
X128837117Y-133313108D01*
X128837117Y-133313108D02*
X129218069Y-133313108D01*
X128218069Y-133789299D02*
X128218069Y-132789299D01*
X127170451Y-133694060D02*
X127218070Y-133741680D01*
X127218070Y-133741680D02*
X127360927Y-133789299D01*
X127360927Y-133789299D02*
X127456165Y-133789299D01*
X127456165Y-133789299D02*
X127599022Y-133741680D01*
X127599022Y-133741680D02*
X127694260Y-133646441D01*
X127694260Y-133646441D02*
X127741879Y-133551203D01*
X127741879Y-133551203D02*
X127789498Y-133360727D01*
X127789498Y-133360727D02*
X127789498Y-133217870D01*
X127789498Y-133217870D02*
X127741879Y-133027394D01*
X127741879Y-133027394D02*
X127694260Y-132932156D01*
X127694260Y-132932156D02*
X127599022Y-132836918D01*
X127599022Y-132836918D02*
X127456165Y-132789299D01*
X127456165Y-132789299D02*
X127360927Y-132789299D01*
X127360927Y-132789299D02*
X127218070Y-132836918D01*
X127218070Y-132836918D02*
X127170451Y-132884537D01*
X57856641Y-118788346D02*
X57094737Y-118788346D01*
X57475689Y-119169299D02*
X57475689Y-118407394D01*
X56094737Y-119169299D02*
X56666165Y-119169299D01*
X56380451Y-119169299D02*
X56380451Y-118169299D01*
X56380451Y-118169299D02*
X56475689Y-118312156D01*
X56475689Y-118312156D02*
X56570927Y-118407394D01*
X56570927Y-118407394D02*
X56666165Y-118455013D01*
X55475689Y-118169299D02*
X55380451Y-118169299D01*
X55380451Y-118169299D02*
X55285213Y-118216918D01*
X55285213Y-118216918D02*
X55237594Y-118264537D01*
X55237594Y-118264537D02*
X55189975Y-118359775D01*
X55189975Y-118359775D02*
X55142356Y-118550251D01*
X55142356Y-118550251D02*
X55142356Y-118788346D01*
X55142356Y-118788346D02*
X55189975Y-118978822D01*
X55189975Y-118978822D02*
X55237594Y-119074060D01*
X55237594Y-119074060D02*
X55285213Y-119121680D01*
X55285213Y-119121680D02*
X55380451Y-119169299D01*
X55380451Y-119169299D02*
X55475689Y-119169299D01*
X55475689Y-119169299D02*
X55570927Y-119121680D01*
X55570927Y-119121680D02*
X55618546Y-119074060D01*
X55618546Y-119074060D02*
X55666165Y-118978822D01*
X55666165Y-118978822D02*
X55713784Y-118788346D01*
X55713784Y-118788346D02*
X55713784Y-118550251D01*
X55713784Y-118550251D02*
X55666165Y-118359775D01*
X55666165Y-118359775D02*
X55618546Y-118264537D01*
X55618546Y-118264537D02*
X55570927Y-118216918D01*
X55570927Y-118216918D02*
X55475689Y-118169299D01*
X54856641Y-118169299D02*
X54523308Y-119169299D01*
X54523308Y-119169299D02*
X54189975Y-118169299D01*
X101316641Y-95028346D02*
X100554737Y-95028346D01*
X100935689Y-95409299D02*
X100935689Y-94647394D01*
X100078546Y-95409299D02*
X100078546Y-94409299D01*
X99602356Y-95409299D02*
X99602356Y-94409299D01*
X99602356Y-94409299D02*
X99030928Y-95409299D01*
X99030928Y-95409299D02*
X99030928Y-94409299D01*
X98697594Y-94409299D02*
X98364261Y-95409299D01*
X98364261Y-95409299D02*
X98030928Y-94409299D01*
X77878070Y-83892632D02*
X77878070Y-84559299D01*
X78116165Y-83511680D02*
X78354260Y-84225965D01*
X78354260Y-84225965D02*
X77735213Y-84225965D01*
X77163784Y-83559299D02*
X77068546Y-83559299D01*
X77068546Y-83559299D02*
X76973308Y-83606918D01*
X76973308Y-83606918D02*
X76925689Y-83654537D01*
X76925689Y-83654537D02*
X76878070Y-83749775D01*
X76878070Y-83749775D02*
X76830451Y-83940251D01*
X76830451Y-83940251D02*
X76830451Y-84178346D01*
X76830451Y-84178346D02*
X76878070Y-84368822D01*
X76878070Y-84368822D02*
X76925689Y-84464060D01*
X76925689Y-84464060D02*
X76973308Y-84511680D01*
X76973308Y-84511680D02*
X77068546Y-84559299D01*
X77068546Y-84559299D02*
X77163784Y-84559299D01*
X77163784Y-84559299D02*
X77259022Y-84511680D01*
X77259022Y-84511680D02*
X77306641Y-84464060D01*
X77306641Y-84464060D02*
X77354260Y-84368822D01*
X77354260Y-84368822D02*
X77401879Y-84178346D01*
X77401879Y-84178346D02*
X77401879Y-83940251D01*
X77401879Y-83940251D02*
X77354260Y-83749775D01*
X77354260Y-83749775D02*
X77306641Y-83654537D01*
X77306641Y-83654537D02*
X77259022Y-83606918D01*
X77259022Y-83606918D02*
X77163784Y-83559299D01*
X76544736Y-83559299D02*
X76211403Y-84559299D01*
X76211403Y-84559299D02*
X75878070Y-83559299D01*
X74449498Y-84035489D02*
X74306641Y-84083108D01*
X74306641Y-84083108D02*
X74259022Y-84130727D01*
X74259022Y-84130727D02*
X74211403Y-84225965D01*
X74211403Y-84225965D02*
X74211403Y-84368822D01*
X74211403Y-84368822D02*
X74259022Y-84464060D01*
X74259022Y-84464060D02*
X74306641Y-84511680D01*
X74306641Y-84511680D02*
X74401879Y-84559299D01*
X74401879Y-84559299D02*
X74782831Y-84559299D01*
X74782831Y-84559299D02*
X74782831Y-83559299D01*
X74782831Y-83559299D02*
X74449498Y-83559299D01*
X74449498Y-83559299D02*
X74354260Y-83606918D01*
X74354260Y-83606918D02*
X74306641Y-83654537D01*
X74306641Y-83654537D02*
X74259022Y-83749775D01*
X74259022Y-83749775D02*
X74259022Y-83845013D01*
X74259022Y-83845013D02*
X74306641Y-83940251D01*
X74306641Y-83940251D02*
X74354260Y-83987870D01*
X74354260Y-83987870D02*
X74449498Y-84035489D01*
X74449498Y-84035489D02*
X74782831Y-84035489D01*
X73592355Y-83559299D02*
X73401879Y-83559299D01*
X73401879Y-83559299D02*
X73306641Y-83606918D01*
X73306641Y-83606918D02*
X73211403Y-83702156D01*
X73211403Y-83702156D02*
X73163784Y-83892632D01*
X73163784Y-83892632D02*
X73163784Y-84225965D01*
X73163784Y-84225965D02*
X73211403Y-84416441D01*
X73211403Y-84416441D02*
X73306641Y-84511680D01*
X73306641Y-84511680D02*
X73401879Y-84559299D01*
X73401879Y-84559299D02*
X73592355Y-84559299D01*
X73592355Y-84559299D02*
X73687593Y-84511680D01*
X73687593Y-84511680D02*
X73782831Y-84416441D01*
X73782831Y-84416441D02*
X73830450Y-84225965D01*
X73830450Y-84225965D02*
X73830450Y-83892632D01*
X73830450Y-83892632D02*
X73782831Y-83702156D01*
X73782831Y-83702156D02*
X73687593Y-83606918D01*
X73687593Y-83606918D02*
X73592355Y-83559299D01*
X72544736Y-83559299D02*
X72354260Y-83559299D01*
X72354260Y-83559299D02*
X72259022Y-83606918D01*
X72259022Y-83606918D02*
X72163784Y-83702156D01*
X72163784Y-83702156D02*
X72116165Y-83892632D01*
X72116165Y-83892632D02*
X72116165Y-84225965D01*
X72116165Y-84225965D02*
X72163784Y-84416441D01*
X72163784Y-84416441D02*
X72259022Y-84511680D01*
X72259022Y-84511680D02*
X72354260Y-84559299D01*
X72354260Y-84559299D02*
X72544736Y-84559299D01*
X72544736Y-84559299D02*
X72639974Y-84511680D01*
X72639974Y-84511680D02*
X72735212Y-84416441D01*
X72735212Y-84416441D02*
X72782831Y-84225965D01*
X72782831Y-84225965D02*
X72782831Y-83892632D01*
X72782831Y-83892632D02*
X72735212Y-83702156D01*
X72735212Y-83702156D02*
X72639974Y-83606918D01*
X72639974Y-83606918D02*
X72544736Y-83559299D01*
X71735212Y-84511680D02*
X71592355Y-84559299D01*
X71592355Y-84559299D02*
X71354260Y-84559299D01*
X71354260Y-84559299D02*
X71259022Y-84511680D01*
X71259022Y-84511680D02*
X71211403Y-84464060D01*
X71211403Y-84464060D02*
X71163784Y-84368822D01*
X71163784Y-84368822D02*
X71163784Y-84273584D01*
X71163784Y-84273584D02*
X71211403Y-84178346D01*
X71211403Y-84178346D02*
X71259022Y-84130727D01*
X71259022Y-84130727D02*
X71354260Y-84083108D01*
X71354260Y-84083108D02*
X71544736Y-84035489D01*
X71544736Y-84035489D02*
X71639974Y-83987870D01*
X71639974Y-83987870D02*
X71687593Y-83940251D01*
X71687593Y-83940251D02*
X71735212Y-83845013D01*
X71735212Y-83845013D02*
X71735212Y-83749775D01*
X71735212Y-83749775D02*
X71687593Y-83654537D01*
X71687593Y-83654537D02*
X71639974Y-83606918D01*
X71639974Y-83606918D02*
X71544736Y-83559299D01*
X71544736Y-83559299D02*
X71306641Y-83559299D01*
X71306641Y-83559299D02*
X71163784Y-83606918D01*
X70878069Y-83559299D02*
X70306641Y-83559299D01*
X70592355Y-84559299D02*
X70592355Y-83559299D01*
D12*
X100050000Y-126940000D02*
G75*
G02*
X98650000Y-126940000I-700000J0D01*
G01*
X98650000Y-126940000D02*
G75*
G02*
X100050000Y-126940000I700000J0D01*
G01*
X54750000Y-107700000D02*
G75*
G02*
X53350000Y-107700000I-700000J0D01*
G01*
X53350000Y-107700000D02*
G75*
G02*
X54750000Y-107700000I700000J0D01*
G01*
X85920000Y-110690000D02*
G75*
G02*
X84520000Y-110690000I-700000J0D01*
G01*
X84520000Y-110690000D02*
G75*
G02*
X85920000Y-110690000I700000J0D01*
G01*
X100000000Y-123270000D02*
G75*
G02*
X98600000Y-123270000I-700000J0D01*
G01*
X98600000Y-123270000D02*
G75*
G02*
X100000000Y-123270000I700000J0D01*
G01*
X54050000Y-97700000D02*
G75*
G02*
X52650000Y-97700000I-700000J0D01*
G01*
X52650000Y-97700000D02*
G75*
G02*
X54050000Y-97700000I700000J0D01*
G01*
X84060000Y-102600000D02*
G75*
G02*
X82660000Y-102600000I-700000J0D01*
G01*
X82660000Y-102600000D02*
G75*
G02*
X84060000Y-102600000I700000J0D01*
G01*
%LPC*%
D13*
X50730000Y-128610000D03*
X136640000Y-131420000D03*
X125700000Y-85080000D03*
D14*
X47000000Y-139000000D03*
D15*
X47000000Y-136460000D03*
X49540000Y-139000000D03*
X49540000Y-136460000D03*
X52080000Y-139000000D03*
X52080000Y-136460000D03*
X54620000Y-139000000D03*
X54620000Y-136460000D03*
X57160000Y-139000000D03*
X57160000Y-136460000D03*
X59700000Y-139000000D03*
X59700000Y-136460000D03*
D16*
X108000000Y-85500000D03*
X113000000Y-85500000D03*
X118000000Y-85500000D03*
D17*
X98800000Y-98000000D03*
D18*
X135075000Y-107550000D03*
X140075000Y-107550000D03*
D16*
X49000000Y-85500000D03*
X54000000Y-85500000D03*
X59000000Y-85500000D03*
D17*
X55300000Y-121700000D03*
D18*
X135075000Y-96850000D03*
X140075000Y-96850000D03*
X135025000Y-85925000D03*
X140025000Y-85925000D03*
D14*
X109000000Y-139000000D03*
D15*
X109000000Y-136460000D03*
X111540000Y-139000000D03*
X111540000Y-136460000D03*
X114080000Y-139000000D03*
X114080000Y-136460000D03*
X116620000Y-139000000D03*
X116620000Y-136460000D03*
X119160000Y-139000000D03*
X119160000Y-136460000D03*
X121700000Y-139000000D03*
X121700000Y-136460000D03*
D19*
X99350000Y-126940000D03*
X54050000Y-107700000D03*
X85220000Y-110690000D03*
X99300000Y-123270000D03*
X53350000Y-97700000D03*
X83360000Y-102600000D03*
%LPD*%
M02*
